<?xml version="1.0" standalone="no"?><!DOCTYPE svg PUBLIC "-//W3C//DTD SVG 1.1//EN" "http://www.w3.org/Graphics/SVG/1.1/DTD/svg11.dtd"><svg t="1580893070890" class="icon" viewBox="0 0 1024 1024" version="1.1" xmlns="http://www.w3.org/2000/svg" p-id="2229" xmlns:xlink="http://www.w3.org/1999/xlink" width="200" height="200"><defs><style type="text/css"></style></defs><path d="M694.9 275.9C643 235.6 579.3 213.3 512 213.3 347.1 213.3 213.3 347 213.3 512S347.1 810.7 512 810.7c120.2 0 227.2-71.6 274.2-180 9.4-21.6 34.5-31.6 56.1-22.2s31.6 34.5 22.2 56.1C804.1 803.9 666.5 896 512 896c-212.1 0-384-171.9-384-384s171.9-384 384-384c87.5 0 170.6 29.4 237.8 82.5l61.7-73.5 84.6 260.5-271.2-38.1 70-83.5z" p-id="2230" fill="#707070"></path></svg>