<?xml version="1.0" standalone="no"?><!DOCTYPE svg PUBLIC "-//W3C//DTD SVG 1.1//EN" "http://www.w3.org/Graphics/SVG/1.1/DTD/svg11.dtd"><svg t="1581920876234" class="icon" viewBox="0 0 1024 1024" version="1.1" xmlns="http://www.w3.org/2000/svg" p-id="2753" xmlns:xlink="http://www.w3.org/1999/xlink" width="200" height="200"><defs><style type="text/css"></style></defs><path d="M224.452467 228.401274c45.783267-8.355446 84.279364-9.404646 110.547514-2.937759-28.976993 21.060303-72.700013 61.6548-102.401907 129.471264a30.903705 30.903705 0 0 0 2.365469 29.816353c9.996013 15.280165 32.983029 19.114514 47.328452 7.325322 55.226066-45.478045 105.835653-70.105628 143.473314-67.358631-0.495985 53.661804 2.346392 170.084838 34.242068 219.740606a31.952905 31.952905 0 0 0 52.784292 1.583338c19.76311-27.164739 65.088545-102.134839 64.95501-218.119116 27.870564 1.831331 84.56551 11.197824 129.604799 55.20699 12.723933 12.399635 34.642672 11.350435 46.2411-1.831331 6.009054-6.810261 8.813279-16.005067 7.649621-25.16172-4.597403-36.264163-23.235008-86.854673-84.56551-127.830698 17.340412-2.956836 42.788278-5.570298 78.632762-5.570297 8.660668 0 17.893627 0.152611 28.843458 0.476909a31.66676 31.66676 0 0 0 30.636636-22.967939 31.685836 31.685836 0 0 0-13.410682-35.863559c-38.381639-24.58943-97.861734-53.909797-163.331805-53.909798-26.191844 0-53.795339 8.851432-77.373722 18.256078V57.229084c0-29.301291-18.77114-57.229084-44.886678-57.229084h-42.406752c-26.115539 0-47.347529 23.845452-46.260176 53.146743V131.43613a374.678813 374.678813 0 0 0-62.303396-5.341382c-59.651782 0-114.305557 14.593416-162.492446 43.36057a31.628607 31.628607 0 0 0-14.3645 35.882635c4.482945 16.024144 19.095438 26.21092 36.493079 23.063321z" p-id="2754" fill="#bfbfbf"></path><path d="M848.650087 218.233574a69.342573 69.342573 0 0 1-64.478102 43.131653 950.899383 950.899383 0 0 0-19.629575-0.41968 204.403212 204.403212 0 0 1 34.585443 90.3838 70.20101 70.20101 0 0 1-16.901657 55.226066 70.162857 70.162857 0 0 1-52.765215 23.444848c-18.50407 0-35.80633-6.943796-48.740103-19.553271-21.041227-20.545241-45.458969-31.743065-66.900799-37.809348-9.728944 102.192068-51.067419 169.607929-70.181934 195.876078a70.391773 70.391773 0 0 1-56.694946 28.862535 70.010246 70.010246 0 0 1-59.060414-32.239051c-28.385626-44.199929-37.790272-123.767432-39.869595-195.113023-19.171743 7.516086-46.069413 22.395648-81.47514 51.544328a69.609643 69.609643 0 0 1-44.1427 15.604464c-24.246055 0-46.45094-11.770115-59.34656-31.475997a69.437955 69.437955 0 0 1-5.39861-66.023286 368.707912 368.707912 0 0 1 44.238082-75.523315c-3.490974 0.553214-7.001025 1.182734-10.606457 1.831331-31.132622 5.532145-58.488124-8.660668-72.642784-33.34548C62.417854 319.242907 7.49701 438.260325 7.49701 562.104063c0 254.726653 226.302874 461.93409 504.493452 461.93409s504.493452-207.207437 504.493452-461.93409c0.019076-133.000391-60.739134-256.233685-167.833827-343.870489zM103.012351 434.464129a19.095438 19.095438 0 0 1 35.844483 13.105461 228.706496 228.706496 0 0 0-13.238995 62.665847 19.076361 19.076361 0 0 1-38.05734-2.632538c1.774102-25.333408 6.981948-49.941914 15.451852-73.13877z m36.245087 242.670393a19.038209 19.038209 0 0 1-26.134615-6.676727A215.887181 215.887181 0 0 1 85.328564 591.367201a19.076361 19.076361 0 0 1 16.100449-21.65167 18.885598 18.885598 0 0 1 21.65167 16.100449 178.058757 178.058757 0 0 0 22.872558 65.183927 19.076361 19.076361 0 0 1-6.695803 26.134615z" p-id="2755" fill="#bfbfbf"></path></svg>